name rise44.8762peak52.3436fall86.788.mot
datacolumns 19
datarows 35
range 1.70666300000000 1.76332500000000
endheader
time	ground_force1_vx	ground_force1_vy	ground_force1_vz	ground_force1_px	ground_force1_py	ground_force1_pz	ground_force2_vx	ground_force2_vy	ground_force2_vz	ground_force2_px	ground_force2_py	ground_force2_pz	ground_torque1_x	ground_torque1_y	ground_torque1_z	ground_torque2_x	ground_torque2_y	ground_torque2_z	
1.70666300000000	-33.89826100000000	790.38391100000001	59.66569100000000	0.10489600000000	0.00000000000000	0.11007500000000	-5.30144100000000	11.00657200000000	1.99674300000000	0.00000000000000	0.00000000000000	0.00000000000000	0.00000000000000	20.19931500000000	0.00000000000000	0.00000000000000	0.30574300000000	0.00000000000000	
1.70832400000000	-34.28998100000000	788.02949799999999	59.42556100000000	0.10418100000000	0.00000000000000	0.10995700000000	-7.05569900000000	15.79947600000000	2.72461100000000	0.00000000000000	0.00000000000000	0.00000000000000	0.00000000000000	20.09598100000000	0.00000000000000	0.00000000000000	0.44003800000000	0.00000000000000	
1.70998900000000	-34.70574500000000	785.58210699999995	59.16293900000000	0.10346800000000	0.00000000000000	0.10983600000000	-8.90013200000000	21.20799400000000	3.50998700000000	0.00000000000000	0.00000000000000	0.00000000000000	0.00000000000000	19.99565500000000	0.00000000000000	0.00000000000000	0.59119300000000	0.00000000000000	
1.71165400000000	-35.14570200000000	783.04135399999996	58.87766000000000	0.10275800000000	0.00000000000000	0.10971100000000	-10.76831900000000	27.13688300000000	4.32954800000000	0.34114000000000	0.00000000000000	-0.07121400000000	0.00000000000000	19.89844300000000	0.00000000000000	0.00000000000000	1.46636200000000	0.00000000000000	
1.71332600000000	-35.60992000000000	780.40680799999996	58.56959700000000	0.10205100000000	0.00000000000000	0.10958200000000	-12.59034900000000	33.47318900000000	5.15788200000000	0.34591500000000	0.00000000000000	-0.07195600000000	0.00000000000000	19.80443400000000	0.00000000000000	0.00000000000000	1.80985000000000	0.00000000000000	
1.71499600000000	-36.09838300000000	777.67797900000005	58.23866200000000	0.10134700000000	0.00000000000000	0.10945000000000	-14.29812000000000	40.09609400000000	5.96941700000000	0.35020500000000	0.00000000000000	-0.07262100000000	0.00000000000000	19.71369600000000	0.00000000000000	0.00000000000000	2.16564200000000	0.00000000000000	
1.71666200000000	-36.61098500000000	774.85432100000003	57.88480600000000	0.10064600000000	0.00000000000000	0.10931300000000	-15.83032300000000	46.88704800000000	6.74030600000000	0.35408300000000	0.00000000000000	-0.07322400000000	0.00000000000000	19.62627800000000	0.00000000000000	0.00000000000000	2.52540200000000	0.00000000000000	
1.71833000000000	-37.14753300000000	771.93522299999995	57.50801700000000	0.09994700000000	0.00000000000000	0.10917300000000	-17.13649600000000	53.73886200000000	7.45000600000000	0.35760500000000	0.00000000000000	-0.07377500000000	0.00000000000000	19.54221300000000	0.00000000000000	0.00000000000000	2.88130300000000	0.00000000000000	
1.71999200000000	-37.70774100000000	768.92000800000005	57.10832400000000	0.09925100000000	0.00000000000000	0.10902900000000	-18.17974300000000	60.56276400000000	8.08242000000000	0.36082000000000	0.00000000000000	-0.07428200000000	0.00000000000000	19.46150900000000	0.00000000000000	0.00000000000000	3.22649500000000	0.00000000000000	
1.72166000000000	-38.29122800000000	765.80792899999994	56.68579200000000	0.09855800000000	0.00000000000000	0.10888200000000	-18.93797600000000	67.29294200000000	8.62650500000000	0.36376300000000	0.00000000000000	-0.07475300000000	0.00000000000000	19.38415800000000	0.00000000000000	0.00000000000000	3.55543600000000	0.00000000000000	
1.72332200000000	-38.89752200000000	762.59817099999998	56.24052600000000	0.09786600000000	0.00000000000000	0.10873000000000	-19.40376800000000	73.88848100000000	9.07638200000000	0.36646800000000	0.00000000000000	-0.07519300000000	0.00000000000000	19.31013100000000	0.00000000000000	0.00000000000000	3.86406400000000	0.00000000000000	
1.72499100000000	-39.52605300000000	759.28984300000002	55.77267100000000	0.09717700000000	0.00000000000000	0.10857600000000	-19.58302000000000	80.33293800000000	9.43100200000000	0.36895900000000	0.00000000000000	-0.07560700000000	0.00000000000000	19.23937900000000	0.00000000000000	0.00000000000000	4.14981000000000	0.00000000000000	
1.72667200000000	-40.17615300000000	755.88198399999999	55.28240800000000	0.09648900000000	0.00000000000000	0.10841700000000	-19.49276800000000	86.63196100000000	9.69347400000000	0.37126000000000	0.00000000000000	-0.07599900000000	0.00000000000000	19.17183500000000	0.00000000000000	0.00000000000000	4.41149500000000	0.00000000000000	
1.72832600000000	-40.84705800000000	752.37356100000000	54.76995700000000	0.09580300000000	0.00000000000000	0.10825500000000	-19.15843900000000	92.80950300000001	9.87016800000000	0.37338800000000	0.00000000000000	-0.07637200000000	0.00000000000000	19.10741000000000	0.00000000000000	0.00000000000000	4.64913000000000	0.00000000000000	
1.72999100000000	-41.53790500000000	748.76346599999999	54.23557500000000	0.09511800000000	0.00000000000000	0.10809000000000	-18.61089000000000	98.90318400000000	9.96970500000000	0.37536100000000	0.00000000000000	-0.07672800000000	0.00000000000000	19.04599800000000	0.00000000000000	0.00000000000000	4.86364600000000	0.00000000000000	
1.73166200000000	-42.24773100000000	745.05052200000000	53.67955500000000	0.09443400000000	0.00000000000000	0.10792200000000	-17.88351400000000	104.95932300000000	10.00194200000000	0.37719100000000	0.00000000000000	-0.07707000000000	0.00000000000000	18.98747200000000	0.00000000000000	0.00000000000000	5.05660600000000	0.00000000000000	
1.73332800000000	-42.97547600000000	741.23348499999997	53.10222900000000	0.09375200000000	0.00000000000000	0.10775000000000	-17.00962600000000	111.02812200000000	9.97702800000000	0.37889300000000	0.00000000000000	-0.07740000000000	0.00000000000000	18.93168800000000	0.00000000000000	0.00000000000000	5.22991200000000	0.00000000000000	
1.73499400000000	-43.71998100000000	737.31104400000004	52.50396300000000	0.09306900000000	0.00000000000000	0.10757500000000	-16.02029300000000	117.15933900000000	9.90460400000000	0.38047500000000	0.00000000000000	-0.07771800000000	0.00000000000000	18.87848300000000	0.00000000000000	0.00000000000000	5.38553800000000	0.00000000000000	
1.73666200000000	-44.47999000000000	733.28182500000003	51.88515800000000	0.09238800000000	0.00000000000000	0.10739700000000	-14.94271200000000	123.39871300000000	9.79317300000000	0.38194900000000	0.00000000000000	-0.07802800000000	0.00000000000000	18.82767600000000	0.00000000000000	0.00000000000000	5.52531100000000	0.00000000000000	
1.73832200000000	-45.25415100000000	729.14439700000003	51.24625100000000	0.09170600000000	0.00000000000000	0.10721600000000	-13.79914800000000	129.78528800000001	9.64967500000000	0.38332100000000	0.00000000000000	-0.07832900000000	0.00000000000000	18.77907000000000	0.00000000000000	0.00000000000000	5.65073900000000	0.00000000000000	
1.73999200000000	-46.04101400000000	724.89727600000003	50.58771100000000	0.09102500000000	0.00000000000000	0.10703300000000	-12.60642900000000	136.34967700000001	9.47925000000000	0.38460000000000	0.00000000000000	-0.07862200000000	0.00000000000000	18.73244900000000	0.00000000000000	0.00000000000000	5.76289600000000	0.00000000000000	
1.74166000000000	-46.83904000000000	720.53893100000005	49.91004000000000	0.09034300000000	0.00000000000000	0.10684600000000	-11.37593200000000	143.11322799999999	9.28517900000000	0.38579300000000	0.00000000000000	-0.07890900000000	0.00000000000000	18.68758300000000	0.00000000000000	0.00000000000000	5.86237100000000	0.00000000000000	
1.74332400000000	-47.64659700000000	716.06778699999995	49.21377400000000	0.08966100000000	0.00000000000000	0.10665800000000	-10.11396700000000	150.08799200000001	9.06897400000000	0.38690500000000	0.00000000000000	-0.07919000000000	0.00000000000000	18.64422600000000	0.00000000000000	0.00000000000000	5.94925900000000	0.00000000000000	
1.74498900000000	-48.46196300000000	711.48223700000005	48.49947800000000	0.08897900000000	0.00000000000000	0.10646600000000	-8.82247000000000	157.27734799999999	8.83059200000000	0.38794200000000	0.00000000000000	-0.07946500000000	0.00000000000000	18.60211700000000	0.00000000000000	0.00000000000000	6.02319500000000	0.00000000000000	
1.74665800000000	-49.28333500000000	706.78064600000005	47.76774700000000	0.08829600000000	0.00000000000000	0.10627200000000	-7.49988500000000	164.67712000000000	8.56871700000000	0.38890900000000	0.00000000000000	-0.07973500000000	0.00000000000000	18.56098200000000	0.00000000000000	0.00000000000000	6.08342700000000	0.00000000000000	
1.74832600000000	-50.10882400000000	701.96136300000001	47.01920600000000	0.08761200000000	0.00000000000000	0.10607700000000	-6.14213600000000	172.27700400000001	8.28109500000000	0.38981100000000	0.00000000000000	-0.08000100000000	0.00000000000000	18.52053400000000	0.00000000000000	0.00000000000000	6.12890100000000	0.00000000000000	
1.74999200000000	-50.93646600000000	697.02272800000003	46.25450800000000	0.08692800000000	0.00000000000000	0.10587900000000	-4.74361200000000	180.06214700000001	7.96487500000000	0.39065100000000	0.00000000000000	-0.08026200000000	0.00000000000000	18.48047300000000	0.00000000000000	0.00000000000000	6.15835800000000	0.00000000000000	
1.75166000000000	-51.76422200000000	691.96308099999999	45.47433100000000	0.08624200000000	0.00000000000000	0.10567900000000	-3.29807000000000	188.01473200000001	7.61693600000000	0.39143400000000	0.00000000000000	-0.08052000000000	0.00000000000000	18.44048900000000	0.00000000000000	0.00000000000000	6.17043700000000	0.00000000000000	
1.75332200000000	-52.58998500000000	686.78078100000005	44.67938100000000	0.08555700000000	0.00000000000000	0.10547700000000	-1.79942300000000	196.11545000000001	7.23417800000000	0.39216300000000	0.00000000000000	-0.08077300000000	0.00000000000000	18.40026000000000	0.00000000000000	0.00000000000000	6.16376400000000	0.00000000000000	
1.75499300000000	-53.41158200000000	681.47420999999997	43.87038500000000	0.08487000000000	0.00000000000000	0.10527300000000	-0.24236400000000	204.34477400000000	6.81375800000000	0.39284200000000	0.00000000000000	-0.08102300000000	0.00000000000000	18.35945800000000	0.00000000000000	0.00000000000000	6.13703600000000	0.00000000000000	
1.75666200000000	-54.22678400000000	676.04179099999999	43.04809500000000	0.08418300000000	0.00000000000000	0.10506800000000	1.37718300000000	212.68397800000000	6.35327500000000	0.39347200000000	0.00000000000000	-0.08127000000000	0.00000000000000	18.31774300000000	0.00000000000000	0.00000000000000	6.08908600000000	0.00000000000000	
1.75832900000000	-55.03330700000000	670.48200299999996	42.21328300000000	0.08349500000000	0.00000000000000	0.10486100000000	3.06178100000000	221.11588100000000	5.85088200000000	0.39405700000000	0.00000000000000	-0.08151200000000	0.00000000000000	18.27476900000000	0.00000000000000	0.00000000000000	6.01892800000000	0.00000000000000	
1.75999400000000	-55.82881900000000	664.79339500000003	41.36674300000000	0.08280700000000	0.00000000000000	0.10465300000000	4.81236700000000	229.62531000000001	5.30535800000000	0.39460000000000	0.00000000000000	-0.08175200000000	0.00000000000000	18.23018600000000	0.00000000000000	0.00000000000000	5.92579200000000	0.00000000000000	
1.76166300000000	-56.61094800000000	658.97460200000000	40.50928600000000	0.08211900000000	0.00000000000000	0.10444400000000	6.62827100000000	238.19931299999999	4.71611200000000	0.39510300000000	0.00000000000000	-0.08198800000000	0.00000000000000	18.18363600000000	0.00000000000000	0.00000000000000	5.80913000000000	0.00000000000000	
1.76332500000000	-57.37728500000000	653.02436200000000	39.64173800000000	0.08143100000000	0.00000000000000	0.10423300000000	8.50734600000000	246.82714899999999	4.08315800000000	0.39556700000000	0.00000000000000	-0.08222000000000	0.00000000000000	18.13475700000000	0.00000000000000	0.00000000000000	5.66862700000000	0.00000000000000	
